<svg width="31" height="30" viewBox="0 0 31 30" fill="none" xmlns="http://www.w3.org/2000/svg">
<path d="M30.2574 22.3345L29.9304 22.1425C29.9054 22.128 27.4069 20.6455 26.7859 18.8465L26.6474 18.448L26.3914 18.7825C26.3834 18.793 26.0284 19.232 25.0349 19.747C24.2994 15.5605 21.7974 10.5625 18.5094 8.4315C19.4494 8.5075 20.3924 8.4295 21.3024 8.0985C21.8504 7.8995 21.6139 7.0065 21.0609 7.2085C20.3149 7.48 19.5674 7.554 18.8214 7.516C20.6529 5.8375 22.0909 3.265 22.0909 1.384C22.0909 0.932 22.0909 0.0905 21.4209 0.0905C21.1519 0.0905 20.9344 0.2585 20.6339 0.4905C20.1729 0.846 19.4769 1.384 18.4544 1.384C18.0649 1.384 17.3519 0.973 16.7789 0.643C16.0864 0.2445 15.6439 0 15.2719 0C14.6559 0 13.7504 0.498 12.9514 0.9375C12.6264 1.116 12.1819 1.361 12.0899 1.3845C10.9319 1.3845 10.2594 0.8505 9.81345 0.497C9.55345 0.29 9.36495 0.14 9.11345 0.14C8.45445 0.14 8.45445 0.9305 8.45445 1.846C8.45445 3.613 9.80045 5.9455 11.5629 7.513C10.4524 7.5925 9.35745 7.928 8.58795 8.6735C8.16295 9.0845 8.80695 9.7365 9.23045 9.3265C9.86995 8.7065 10.7084 8.441 11.6054 8.3895C11.6309 8.481 11.6619 8.571 11.6999 8.6595C7.94195 11.36 5.27245 17.7725 5.27245 22.1015C5.27245 22.5285 5.30545 22.915 5.35645 23.279C4.38745 22.8485 4.03395 22.471 4.02695 22.4625L3.76895 22.165L3.64195 22.54C3.08045 24.192 0.639446 25.625 0.614946 25.6395L0.257446 25.847L0.620946 26.0435C0.748446 26.1125 0.874946 26.173 1.00245 26.2385L0.772446 26.398L0.893946 27.918L10.4204 30L14.0324 27.6895C14.3969 27.6915 14.7659 27.6925 15.1414 27.6925L19.3634 30L28.9079 27V25.3955L28.6554 25.244C28.7814 25.164 28.9074 25.0825 29.0329 24.9985L29.3674 24.775L29.2939 24.739L29.7194 24.6225L29.7914 22.9545L29.5454 22.78C29.6764 22.7015 29.8069 22.6215 29.9379 22.5385L30.2574 22.3345ZM9.36395 1.846C9.36395 1.624 9.36695 1.451 9.37145 1.3165C9.44795 1.3765 9.53695 1.442 9.63195 1.5095C9.92345 2.2075 10.4749 3.2125 11.4099 3.8455C12.5459 4.6155 12.3949 3.7305 13.0009 2.9225C13.6069 2.115 14.0169 1.692 15.0319 3.769C15.4744 4.6745 16.2119 2.144 16.9129 1.7745C17.0984 1.8755 17.2834 1.9695 17.4649 2.0495C18.7219 4.0935 19.3044 3.456 20.4209 1.757C20.7279 1.577 20.9799 1.384 21.1804 1.2295C21.1814 1.276 21.1824 1.3275 21.1824 1.385C21.1824 2.99 19.8709 5.292 18.2649 6.7935C18.1891 6.6008 18.0805 6.42267 17.9439 6.267C17.2954 5.5325 16.2819 6.347 15.8014 6.8815C14.9489 6.6075 13.5599 5.853 12.6549 6.285C12.4296 6.38956 12.2226 6.52987 12.0419 6.7005C10.5619 5.3515 9.36395 3.404 9.36395 1.846ZM17.4659 7.333C17.2418 7.28546 17.0189 7.23211 16.7974 7.173C17.0764 6.9325 17.3324 6.8485 17.4399 7.206C17.4514 7.245 17.4584 7.2895 17.4659 7.333ZM13.6659 7.6435C13.5004 7.612 13.3304 7.5835 13.1554 7.561C13.0227 7.47783 12.8928 7.39028 12.7659 7.2985C13.2229 6.992 14.0109 7.155 14.7639 7.4105C14.3924 7.448 14.0259 7.529 13.6659 7.6435ZM13.8929 8.9635C13.6129 9.0335 13.3079 9.0055 13.0444 8.9005C13.1514 8.844 13.2594 8.795 13.3674 8.7455C13.5424 8.83 13.7174 8.9005 13.8929 8.9635ZM4.64445 27.1895C3.45189 26.8441 2.29472 26.3866 1.18845 25.823C1.86695 25.377 3.34495 24.2985 3.94595 23.0025C4.35795 23.326 5.30895 23.916 7.16095 24.369C7.12945 24.42 7.09095 24.4745 7.05395 24.528C5.47295 24.114 4.57395 23.5905 4.55945 23.5815L4.34145 23.4515L4.23695 23.685C4.09945 23.991 3.77695 24.037 3.59745 24.037C3.54745 24.037 3.51395 24.0335 3.50945 24.033L3.33095 24.007L3.26595 24.178C3.13295 24.527 2.58695 24.983 2.38695 25.1295L2.05295 25.3745L2.43495 25.531C2.57695 25.589 2.61545 25.6425 2.61745 25.6565C2.62245 25.691 2.56195 25.782 2.49745 25.8345L2.20645 26.069L2.54495 26.2255C3.23845 26.5455 4.02395 26.8105 4.80945 27.029C4.74695 27.0905 4.69295 27.143 4.64445 27.1895ZM8.67645 25.3265C9.37545 25.4245 10.1499 25.4865 10.9959 25.4865H10.9964C11.1724 25.4865 11.3509 25.4835 11.5329 25.478C11.5451 25.5157 11.5624 25.5516 11.5844 25.5845C11.6289 25.652 11.6889 25.708 11.7649 25.7515L10.4889 26.842C10.4646 26.8409 10.4403 26.8404 10.4159 26.8405C9.84745 26.8405 9.42345 27.0495 9.21995 27.4215C8.44893 27.3232 7.68148 27.1986 6.91895 27.048C7.53192 26.5025 8.11842 25.9281 8.67645 25.3265ZM3.00195 25.925C3.05195 25.8305 3.08445 25.716 3.06695 25.591C3.05033 25.4782 2.99626 25.3743 2.91345 25.296C3.13795 25.1035 3.44745 24.8065 3.61745 24.499C4.00395 24.4935 4.32295 24.347 4.52395 24.088C4.86245 24.265 5.62495 24.6225 6.75145 24.9325C6.29095 25.51 5.67045 26.165 5.18795 26.652C4.43595 26.453 3.67845 26.213 3.00195 25.925ZM10.1274 28.0295L10.0249 28.03C9.59445 28.03 8.16795 27.995 6.28345 27.6025C6.34945 27.5465 6.41795 27.489 6.48145 27.434C8.01045 27.7535 9.24345 27.8905 9.33595 27.901L9.51895 27.9205L9.57545 27.743C9.69895 27.36 10.1544 27.3035 10.4154 27.3035C10.4869 27.3035 10.5344 27.308 10.5399 27.3085L10.6369 27.319L12.8534 25.425L12.2609 25.4055C12.0629 25.3985 11.9794 25.354 11.9589 25.3235L12.0844 24.995L11.7374 25.0095C11.4844 25.0205 11.2374 25.026 10.9959 25.026H10.9954C10.2974 25.026 9.64995 24.98 9.05145 24.9075L9.19045 24.7435C10.3984 24.905 11.8449 25.0045 13.5914 24.992C13.1744 25.577 12.1344 26.8205 10.1274 28.0295ZM15.1394 25.857V26.7695C14.8549 26.7695 14.5779 26.7685 14.3069 26.7665L14.2254 25.7395L13.5484 25.7945C14.0044 25.2555 14.1989 24.896 14.2164 24.8635L14.3999 24.5165L14.0124 24.5235C10.3034 24.5915 7.88445 24.1495 6.35745 23.6585C6.24595 23.2075 6.18145 22.6975 6.18145 22.102C6.18145 18.0405 8.77695 11.9015 12.2229 9.4135C12.8334 10.004 13.7594 10.2625 14.6394 9.688C14.8324 9.562 15.0004 9.397 15.1579 9.2215C15.1954 9.2225 15.2339 9.231 15.2719 9.231C15.3979 9.231 15.5259 9.2205 15.6534 9.2045C15.8149 9.269 15.9729 9.334 16.1194 9.3985C16.8209 9.7075 17.4199 9.5155 17.8289 9.0895C20.9854 10.9995 23.5144 16.052 24.1799 20.136C22.7369 20.713 20.4479 21.276 16.9349 21.375C17.6279 20.979 18.1479 20.313 17.9609 19.438C17.7644 18.513 16.9914 18.253 16.1909 18.2105C16.1889 17.776 16.1889 17.3425 16.1919 16.908C16.4374 17.0165 16.6729 17.1415 16.8869 17.275C17.2649 17.5125 17.6069 16.897 17.2314 16.6595C16.9059 16.4548 16.5584 16.2873 16.1954 16.16C16.2004 15.657 16.2029 15.155 16.2029 14.653C16.2034 14.193 15.5199 14.193 15.5199 14.653C15.5199 15.0945 15.5169 15.5355 15.5129 15.976C15.1491 15.9126 14.7777 15.9064 14.4119 15.9575C14.3525 15.6265 14.2804 15.298 14.1959 14.9725C14.0829 14.5295 13.4229 14.717 13.5374 15.1615C13.6214 15.481 13.6899 15.799 13.7464 16.1215C13.7174 16.1325 13.6859 16.138 13.6574 16.151C12.7314 16.5175 12.1664 17.452 12.8439 18.3235C13.1594 18.7295 13.5719 18.8935 14.0234 18.948C14.0479 19.5495 14.0634 20.1515 14.0809 20.7525C13.7784 20.556 13.5029 20.304 13.2534 20.0375C12.9444 19.7115 12.4619 20.215 12.7704 20.5405C13.1899 20.987 13.6304 21.3245 14.1079 21.5405C14.1294 22.054 14.1599 22.569 14.2099 23.08C14.2539 23.5335 14.9379 23.536 14.8934 23.08C14.8513 22.638 14.8201 22.195 14.7999 21.7515C15.0599 21.7965 15.3329 21.808 15.6229 21.7805C15.6554 22.2535 15.6934 22.7265 15.7474 23.1995C15.7784 23.4705 16.0374 23.577 16.2284 23.522L16.1859 24.504C15.8849 24.531 15.5779 24.556 15.2579 24.577L14.8769 24.602L15.0799 24.93C15.1004 24.963 15.3309 25.3275 15.8454 25.858H15.1394V25.857ZM27.5834 22.566C26.9549 22.8615 26.1599 23.1325 25.3499 23.369C24.8519 22.8545 24.2149 22.168 23.7394 21.559C24.7989 21.238 25.3919 20.907 25.6594 20.7285C25.8709 20.915 26.1509 21.012 26.4824 21.0115C26.5924 21.0115 26.6899 21.001 26.7649 20.989C27.0049 21.3 27.3919 21.659 27.6339 21.8735C27.5194 21.991 27.4639 22.121 27.4684 22.2615C27.4724 22.3815 27.5204 22.4835 27.5834 22.566ZM24.0059 24.209C24.1079 24.299 24.2134 24.391 24.3209 24.484C22.2939 25.0215 20.7854 25.08 20.4569 25.0855C18.3579 23.805 17.2699 22.45 16.8504 21.84C18.6069 21.796 20.0589 21.637 21.2699 21.418C21.3192 21.4785 21.369 21.5385 21.4194 21.598C20.4461 21.7496 19.4651 21.8469 18.4809 21.8895L18.0774 21.9065L18.2994 22.246C18.2989 22.2465 18.2539 22.3305 17.9559 22.3885L17.4714 22.483L19.8534 24.4115L19.9644 24.3815C19.9669 24.381 20.1769 24.3245 20.4309 24.3245C20.7974 24.3245 21.0479 24.436 21.1739 24.654L21.2539 24.792L21.4094 24.7645C22.2804 24.6057 23.1463 24.4205 24.0059 24.209ZM16.9574 22.7395L16.3884 22.7085C16.3619 22.4245 16.3354 22.1405 16.3154 21.8565C16.4154 22.0225 16.6204 22.3345 16.9574 22.7395ZM16.2534 20.909C16.2206 20.2359 16.2008 19.5623 16.1939 18.8885C16.2759 18.8915 16.3569 18.899 16.4339 18.91C17.3179 19.044 17.5489 20.027 16.8589 20.58C16.6789 20.7225 16.4714 20.827 16.2534 20.909ZM21.4729 24.285C21.2489 24.0085 20.8924 23.8635 20.4314 23.8635C20.2389 23.8635 20.0694 23.8895 19.9624 23.9105L18.4649 22.697C18.5894 22.6255 18.6734 22.535 18.7194 22.424C18.7308 22.3964 18.7395 22.3678 18.7454 22.3385C19.9324 22.2735 20.9324 22.155 21.7779 22.01C22.1879 22.4675 22.7904 23.0985 23.5894 23.832C22.6079 24.0655 21.7894 24.2255 21.4729 24.285ZM15.5099 18.9065C15.5194 19.631 15.5374 20.3575 15.5759 21.0815C15.5114 21.0915 15.4479 21.104 15.3844 21.1105C15.1694 21.135 14.9654 21.117 14.7714 21.068C14.7469 20.368 14.7309 19.6665 14.7044 18.966C14.9734 18.9535 15.2459 18.927 15.5099 18.9065ZM14.6699 18.274C14.6387 17.7246 14.587 17.1766 14.5149 16.631C14.8464 16.5854 15.1834 16.6026 15.5084 16.6815C15.5049 17.1927 15.504 17.7038 15.5059 18.215C15.2864 18.227 15.0779 18.248 14.8944 18.2645C14.8197 18.2703 14.7449 18.2735 14.6699 18.274ZM13.9839 18.1865C13.9414 18.175 13.8994 18.166 13.8559 18.1515C13.6559 18.0837 13.4748 17.9694 13.3274 17.818C12.9004 17.4195 13.4864 17.0285 13.8559 16.843C13.9139 17.288 13.9539 17.737 13.9839 18.1865ZM19.5024 27.9195C17.3319 26.8105 16.1674 25.578 15.7049 25.007C16.0374 24.982 16.3519 24.952 16.6634 24.9205L20.2224 27.2305L28.0274 25.0865C24.0024 27.5125 20.0259 27.882 19.5024 27.9195ZM25.9484 23.9745C25.8844 23.9105 25.8079 23.8345 25.7174 23.743C26.6054 23.474 27.4644 23.162 28.1049 22.819L28.4944 22.6095L28.0994 22.4085C28.0109 22.363 27.9244 22.2795 27.9229 22.248C27.9239 22.236 27.9589 22.172 28.1104 22.085L28.3994 21.919L28.1424 21.705C28.1344 21.6985 27.3329 21.033 27.0514 20.6045L26.9584 20.4645L26.7989 20.511C26.7974 20.511 26.6604 20.5505 26.4824 20.5505C26.2074 20.551 26.0014 20.461 25.8694 20.284L25.7234 20.0905L25.5404 20.248C25.5309 20.256 24.9644 20.7205 23.4449 21.1595C23.3949 21.0874 23.3467 21.0141 23.3004 20.9395C25.1429 20.381 26.0844 19.705 26.4924 19.335C27.1474 20.752 28.7069 21.8935 29.3839 22.341C28.2964 22.9991 27.1454 23.5464 25.9484 23.9745Z" fill="white"/>
</svg>
