<svg width="30" height="24" viewBox="0 0 30 24" fill="none" xmlns="http://www.w3.org/2000/svg">
<path d="M24.0022 9.75217L25.7238 11.4738C26.6098 12.3598 28.1244 11.7322 28.1244 10.4795V3.5625C28.125 3.04453 27.7055 2.625 27.1875 2.625H20.2699C19.0172 2.625 18.3896 4.13965 19.2756 5.02559L20.9972 6.74726L24.0022 9.75217ZM24.0022 9.75217L23.8254 9.57539L23.6486 9.75217L18.2004 15.2004C17.4686 15.9328 16.2814 15.9328 15.549 15.2004L11.4268 11.0781L11.4268 11.0781L11.25 10.9014L11.0732 11.0781L11.0732 11.0782L8.55117 13.6008L24.0022 9.75217ZM3.5 19.5V19.75H3.75H29.0625C29.4424 19.75 29.75 20.0576 29.75 20.4375V22.3125C29.75 22.6924 29.4424 23 29.0625 23H1.875C0.97772 23 0.25 22.2723 0.25 21.375V1.6875C0.25 1.3076 0.557602 1 0.9375 1H2.8125C3.1924 1 3.5 1.3076 3.5 1.6875V19.5ZM21.3508 7.10079L21.5276 6.92401L21.3508 6.74725L19.4524 4.84881C18.7239 4.12038 19.2399 2.875 20.2699 2.875H27.1875C27.5675 2.875 27.8748 3.18259 27.8744 3.56222V3.5625V10.4795C27.8744 11.5095 26.629 12.0255 25.9006 11.2971L24.0022 9.39861L23.8254 9.22184L23.6486 9.39861L18.0236 15.0236L18.0235 15.0237C17.3894 15.6583 16.3606 15.6584 15.7258 15.0236L11.4268 10.7246L11.25 10.5478L11.0732 10.7246L8.3744 13.424C8.37439 13.424 8.37438 13.424 8.37438 13.424C8.10579 13.6926 7.67055 13.6926 7.40197 13.424L6.07658 12.0986C5.808 11.83 5.808 11.3948 6.07658 11.1262L10.1014 7.10139L10.1015 7.10132C10.7356 6.46666 11.7644 6.46656 12.3992 7.10139L16.6982 11.4004L16.875 11.5772L17.0518 11.4004L21.3508 7.10079Z" fill="white" stroke="#3F6745" stroke-width="0.5"/>
</svg>
