<svg width="29" height="28" viewBox="0 0 29 28" fill="none" xmlns="http://www.w3.org/2000/svg">
<path d="M0.790202 17.7398C0.837299 17.9176 0.919146 18.0844 1.03102 18.2304C1.14289 18.3764 1.28257 18.4988 1.44201 18.5906L4.11933 20.1381V23.2203C4.11933 23.5921 4.26701 23.9486 4.52989 24.2114C4.79276 24.4743 5.1493 24.622 5.52106 24.622H8.60349L10.151 27.2992C10.2751 27.5113 10.4523 27.6875 10.6651 27.8103C10.878 27.9332 11.1191 27.9986 11.3649 28C11.6088 28 11.8513 27.9355 12.0672 27.8108L14.7417 26.2647L17.419 27.8122C17.7409 27.9978 18.1232 28.0481 18.4822 27.9522C18.8411 27.8563 19.1474 27.622 19.3338 27.3006L20.8799 24.6234H23.9623C24.3341 24.6234 24.6906 24.4757 24.9535 24.2128C25.2164 23.95 25.3641 23.5935 25.3641 23.2217V20.1395L28.0414 18.592C28.2009 18.4999 28.3406 18.3772 28.4526 18.231C28.5647 18.0848 28.6468 17.918 28.6943 17.74C28.7418 17.5621 28.7538 17.3765 28.7296 17.1939C28.7053 17.0113 28.6453 16.8353 28.553 16.6759L27.0069 14.0002L28.5544 11.3258C28.7404 11.004 28.791 10.6216 28.695 10.2625C28.5991 9.90346 28.3645 9.59721 28.0428 9.4111L25.3655 7.86366V4.77999C25.3655 4.40825 25.2178 4.05173 24.9549 3.78887C24.692 3.526 24.3355 3.37833 23.9637 3.37833H20.8813L19.3352 0.702547C19.1485 0.381448 18.8428 0.146794 18.4843 0.0493705C18.3065 0.00117547 18.1209 -0.0112518 17.9383 0.0128089C17.7557 0.0368696 17.5797 0.0969399 17.4204 0.189537L14.7417 1.73558L12.0658 0.188135C11.744 0.00215463 11.3615 -0.048427 11.0025 0.0475121C10.6434 0.143451 10.3371 0.378057 10.151 0.699744L8.60349 3.37693H5.52106C5.1493 3.37693 4.79276 3.5246 4.52989 3.78747C4.26701 4.05033 4.11933 4.40685 4.11933 4.77859V7.86086L1.44201 9.4083C1.1204 9.59521 0.885975 9.90196 0.790078 10.2614C0.694182 10.6207 0.744631 11.0035 0.930376 11.3258L2.47789 14.0002L0.930376 16.6745C0.745329 16.9974 0.694966 17.3801 0.790202 17.7398ZM14.7417 15.4018C9.86365 15.4018 9.13474 12.7681 9.13474 11.1968C9.13474 9.39288 10.5771 7.57632 13.34 7.11097V5.60698H16.1434V7.16143C18.574 7.73611 19.5076 9.75871 19.5076 11.1968H18.1059L16.7041 11.2221C16.6845 10.6894 16.4028 9.79516 14.7417 9.79516C12.9208 9.79516 11.9382 10.517 11.9382 11.1968C11.9382 11.721 11.9382 12.5985 14.7417 12.5985C19.6197 12.5985 20.3486 15.2322 20.3486 16.8035C20.3486 18.6074 18.9063 20.424 16.1434 20.8893V22.4102H13.34V20.8964C10.0613 20.3819 9.13474 18.0888 9.13474 16.8035H11.9382C11.9536 17.0039 12.1611 18.2052 14.7417 18.2052C16.6761 18.2052 17.5452 17.3852 17.5452 16.8035C17.5452 16.3479 17.5452 15.4018 14.7417 15.4018Z" fill="white"/>
</svg>
