<svg width="31" height="24" viewBox="0 0 31 24" fill="none" xmlns="http://www.w3.org/2000/svg">
<path d="M23.3754 8.99972H16.2504V11.6247C16.2504 13.4857 14.7363 14.9997 12.8754 14.9997C11.0144 14.9997 9.50036 13.4857 9.50036 11.6247V5.92472L6.45817 7.75284C5.55348 8.29191 5.00036 9.27159 5.00036 10.3216V12.5388L1.25036 14.7044C0.533169 15.1169 0.284732 16.0357 0.701919 16.7528L4.45192 23.2497C4.86442 23.9669 5.78317 24.2107 6.50036 23.7982L11.3472 20.9997H17.7504C19.405 20.9997 20.7504 19.6544 20.7504 17.9997H21.5004C22.33 17.9997 23.0004 17.3294 23.0004 16.4997V13.4997H23.3754C23.9988 13.4997 24.5004 12.9982 24.5004 12.3747V10.1247C24.5004 9.50128 23.9988 8.99972 23.3754 8.99972ZM30.2988 7.24659L26.5488 0.749718C26.1363 0.0325309 25.2175 -0.211219 24.5004 0.201281L19.6535 2.99972H14.8629C14.3004 2.99972 13.7519 3.15909 13.2738 3.45441L11.7035 4.43409C11.2629 4.70597 11.0004 5.18878 11.0004 5.70441V11.6247C11.0004 12.6607 11.8394 13.4997 12.8754 13.4997C13.9113 13.4997 14.7504 12.6607 14.7504 11.6247V7.49972H23.3754C24.8238 7.49972 26.0004 8.67628 26.0004 10.1247V11.4607L29.7504 9.29503C30.4675 8.87784 30.7113 7.96378 30.2988 7.24659Z" fill="white"/>
</svg>
