<svg width="31" height="27" viewBox="0 0 31 27" fill="none" xmlns="http://www.w3.org/2000/svg">
<path d="M15.255 0C11.6305 0 8.6925 2.93802 8.6925 6.5625C8.6925 9.49271 12.9816 14.8333 14.6248 16.7719C14.9576 17.1646 15.5529 17.1646 15.8852 16.7719C17.5284 14.8333 21.8175 9.49271 21.8175 6.5625C21.8175 2.93802 18.8795 0 15.255 0ZM15.255 8.75C14.0467 8.75 13.0675 7.77083 13.0675 6.5625C13.0675 5.35417 14.0467 4.375 15.255 4.375C16.4633 4.375 17.4425 5.35417 17.4425 6.5625C17.4425 7.77083 16.4633 8.75 15.255 8.75ZM1.30292 11.2474C0.993639 11.3711 0.72851 11.5846 0.541729 11.8604C0.354947 12.1362 0.255079 12.4617 0.255005 12.7948L0.255005 25.8323C0.255005 26.4219 0.850317 26.825 1.39771 26.6062L8.58834 23.3333V11.1937C8.12792 10.3615 7.75136 9.55104 7.48157 8.77604L1.30292 11.2474ZM15.255 18.7328C14.5222 18.7328 13.829 18.4109 13.3534 17.8495C12.3295 16.6411 11.2404 15.2651 10.255 13.8536V23.3328L20.255 26.6661V13.8542C19.2696 15.2651 18.181 16.6417 17.1566 17.85C16.681 18.4109 15.9878 18.7328 15.255 18.7328ZM29.1123 8.39375L21.9217 11.6667V26.6667L29.2071 23.7526C29.5164 23.629 29.7816 23.4154 29.9684 23.1396C30.1552 22.8638 30.255 22.5383 30.255 22.2052V9.16771C30.255 8.57812 29.6597 8.175 29.1123 8.39375Z" fill="white"/>
</svg>
