<svg width="41" height="30" viewBox="0 0 41 30" fill="none" xmlns="http://www.w3.org/2000/svg">
<path d="M10 12C9.55403 12 9.12603 12.068 8.70003 12.13C8.83803 11.666 8.98003 11.194 9.20803 10.77C9.43603 10.154 9.79203 9.62 10.146 9.082C10.442 8.5 10.964 8.106 11.348 7.608C11.75 7.124 12.298 6.802 12.732 6.4C13.158 5.98 13.716 5.77 14.16 5.474C14.624 5.208 15.028 4.914 15.46 4.774L16.538 4.33L17.486 3.936L16.516 0.0599976L15.322 0.347997C14.94 0.443997 14.474 0.555997 13.944 0.689997C13.402 0.789997 12.824 1.064 12.18 1.314C11.544 1.598 10.808 1.79 10.124 2.246C9.43603 2.682 8.64203 3.046 7.94203 3.63C7.26403 4.232 6.44603 4.754 5.84203 5.52C5.18203 6.236 4.53003 6.988 4.02403 7.844C3.43803 8.66 3.04003 9.556 2.62003 10.442C2.24003 11.328 1.93403 12.234 1.68403 13.114C1.21003 14.878 0.998031 16.554 0.916031 17.988C0.848031 19.424 0.888031 20.618 0.972031 21.482C1.00203 21.89 1.05803 22.286 1.09803 22.56L1.14803 22.896L1.20003 22.884C1.55575 24.5457 2.37464 26.0727 3.56196 27.2884C4.74928 28.5041 6.25651 29.3588 7.90931 29.7537C9.56211 30.1485 11.2929 30.0674 12.9015 29.5197C14.5102 28.9719 15.9308 27.98 16.9992 26.6586C18.0677 25.3371 18.7401 23.7402 18.9389 22.0526C19.1376 20.3649 18.8545 18.6555 18.1223 17.122C17.3901 15.5886 16.2387 14.2937 14.8013 13.3873C13.364 12.4809 11.6993 11.9999 10 12ZM32 12C31.554 12 31.126 12.068 30.7 12.13C30.838 11.666 30.98 11.194 31.208 10.77C31.436 10.154 31.792 9.62 32.146 9.082C32.442 8.5 32.964 8.106 33.348 7.608C33.75 7.124 34.298 6.802 34.732 6.4C35.158 5.98 35.716 5.77 36.16 5.474C36.624 5.208 37.028 4.914 37.46 4.774L38.538 4.33L39.486 3.936L38.516 0.0599976L37.322 0.347997C36.94 0.443997 36.474 0.555997 35.944 0.689997C35.402 0.789997 34.824 1.064 34.18 1.314C33.546 1.6 32.808 1.79 32.124 2.248C31.436 2.684 30.642 3.048 29.942 3.632C29.264 4.234 28.446 4.756 27.842 5.52C27.182 6.236 26.53 6.988 26.024 7.844C25.438 8.66 25.04 9.556 24.62 10.442C24.24 11.328 23.934 12.234 23.684 13.114C23.21 14.878 22.998 16.554 22.916 17.988C22.848 19.424 22.888 20.618 22.972 21.482C23.002 21.89 23.058 22.286 23.098 22.56L23.148 22.896L23.2 22.884C23.5558 24.5457 24.3746 26.0727 25.562 27.2884C26.7493 28.5041 28.2565 29.3588 29.9093 29.7537C31.5621 30.1485 33.2929 30.0674 34.9015 29.5197C36.5102 28.9719 37.9308 27.98 38.9992 26.6586C40.0676 25.3371 40.7401 23.7402 40.9389 22.0526C41.1376 20.3649 40.8545 18.6555 40.1223 17.122C39.3901 15.5886 38.2387 14.2937 36.8013 13.3873C35.364 12.4809 33.6993 11.9999 32 12Z" fill="#F1F1F1"/>
</svg>
